<?xml version="1.0" encoding="UTF-8"?>
<svg width="115px" height="48px" viewBox="0 0 115 48" version="1.1" xmlns="http://www.w3.org/2000/svg" xmlns:xlink="http://www.w3.org/1999/xlink">
    <!-- Generator: Sketch 43.2 (39069) - http://www.bohemiancoding.com/sketch -->
    <title>logo</title>
    <desc>Created with Sketch.</desc>
    <defs></defs>
    <g id="Page-1" stroke="none" stroke-width="1" fill="none" fill-rule="evenodd">
        <g id="logo">
            <path d="M25.1367188,18.0164063 L25.0195312,26.825 L0.87890625,26.825 L0.87890625,24.6570313 L1.26953125,24.6570313 C2.59766289,24.6570313 3.46028447,24.4128931 3.85742188,23.9246094 C4.25455928,23.4363257 4.453125,22.5997455 4.453125,21.4148438 L4.453125,5.75078125 C4.453125,4.5398377 4.24479375,3.69674717 3.828125,3.22148438 C3.41145625,2.74622158 2.5586002,2.50859375 1.26953125,2.50859375 L0.87890625,2.50859375 L0.87890625,0.340625 L15.078125,0.340625 L15.078125,2.50859375 L14.5507812,2.50859375 C13.2226496,2.50859375 12.360028,2.75273193 11.9628906,3.24101563 C11.5657532,3.72929932 11.3671875,4.56587949 11.3671875,5.75078125 L11.3671875,20.8679688 C11.3671875,22.0007869 11.432291,22.7494773 11.5625,23.1140625 C11.692709,23.4786477 12.0345024,23.7943997 12.5878906,24.0613281 C13.1412788,24.3282565 14.108066,24.4617188 15.4882812,24.4617188 C17.8060012,24.4617188 19.5377547,23.8790423 20.6835938,22.7136719 C21.8294328,21.5483015 22.610675,19.9825619 23.0273438,18.0164063 L25.1367188,18.0164063 Z M26.8945312,18.778125 C26.8945312,16.0958199 27.8450426,13.9929764 29.7460938,12.4695313 C31.6471449,10.9460861 33.945299,10.184375 36.640625,10.184375 C39.2708465,10.184375 41.5624902,10.9232999 43.515625,12.4011719 C45.4687598,13.8790438 46.4453125,16.011184 46.4453125,18.7976563 C46.4453125,21.4408986 45.4882908,23.5469974 43.5742188,25.1160156 C41.6601467,26.6850339 39.3424615,27.4695313 36.6210938,27.4695313 C33.9648305,27.4695313 31.6796971,26.724096 29.765625,25.2332031 C27.8515529,23.7423103 26.8945312,21.5906391 26.8945312,18.778125 Z M33.59375,18.5828125 C33.59375,21.082825 33.8248675,22.8308544 34.2871094,23.8269531 C34.7493513,24.8230519 35.5533797,25.3210938 36.6992188,25.3210938 C37.6237025,25.3210938 38.3626274,24.9044313 38.9160156,24.0710938 C39.4694038,23.2377563 39.7460938,21.4604303 39.7460938,18.7390625 C39.7460938,16.2650918 39.4987004,14.5886763 39.0039062,13.7097656 C38.5091121,12.830855 37.7278699,12.3914063 36.6601562,12.3914063 C35.8137979,12.3914063 35.0911488,12.7657515 34.4921875,13.5144531 C33.8932262,14.2631548 33.59375,15.952591 33.59375,18.5828125 Z M57.7929687,15.8484375 L57.7929687,22.1960938 C57.7929687,23.1075566 57.9296861,23.7585918 58.203125,24.1492188 C58.4765639,24.5398457 58.9648402,24.7416666 59.6679687,24.7546875 L59.6679687,26.825 L48.7304687,26.825 L48.7304687,24.7546875 C49.8632869,24.7546875 50.5859359,24.5756528 50.8984375,24.2175781 C51.2109391,23.8595034 51.3671875,23.185682 51.3671875,22.1960938 L51.3671875,16.7273438 C51.3671875,15.7377555 51.2141942,15.0574237 50.9082031,14.6863281 C50.602212,14.3152325 49.8763078,14.1296875 48.7304687,14.1296875 L48.7304687,12.059375 L57.4023437,10.6335938 C57.623699,11.1414088 57.7539061,11.922651 57.7929687,12.9773438 C58.652348,12.0398391 59.5540317,11.3399763 60.4980469,10.8777344 C61.442062,10.4154925 62.4218699,10.184375 63.4375,10.184375 C65.2604258,10.184375 66.6927031,10.6889272 67.734375,11.6980469 C68.7760469,12.7071665 69.296875,14.0906162 69.296875,15.8484375 L69.296875,22.1960938 C69.296875,23.1726611 69.4563786,23.8432273 69.7753906,24.2078125 C70.0944026,24.5723977 70.7877551,24.7546875 71.8554687,24.7546875 L71.8554687,26.825 L60.9765625,26.825 L60.9765625,24.7546875 C61.5234402,24.7286457 61.98242,24.5723973 62.3535156,24.2859375 C62.7246112,23.9994777 62.9101562,23.3028701 62.9101562,22.1960938 L62.9101562,16.3367188 C62.9101562,15.2690051 62.7636733,14.5398457 62.4707031,14.1492188 C62.1777329,13.7585918 61.7578152,13.5632813 61.2109375,13.5632813 C60.6640598,13.5632813 60.1041695,13.7520814 59.53125,14.1296875 C58.9583305,14.5072936 58.3789092,15.0802045 57.7929687,15.8484375 Z M78.3398438,21.121875 C76.9205658,20.7572898 75.8170612,20.0737029 75.0292969,19.0710938 C74.2415325,18.0684846 73.8476562,16.9942766 73.8476562,15.8484375 C73.8476562,14.0124908 74.6419191,12.6160204 76.2304688,11.6589844 C77.8190184,10.7019483 79.8632688,10.2234375 82.3632812,10.2234375 C83.7434965,10.2234375 84.9511667,10.3634101 85.9863281,10.6433594 C87.0214896,10.9233087 87.8841111,11.3432264 88.5742188,11.903125 C89.9414131,10.7572859 91.087235,10.184375 92.0117188,10.184375 C93.3138086,10.184375 93.9648438,10.8158791 93.9648438,12.0789063 C93.9648438,13.1466199 93.5156295,13.6804688 92.6171875,13.6804688 C92.291665,13.6804688 91.8424508,13.4395857 91.2695312,12.9578125 C91.048176,12.7755199 90.8398447,12.684375 90.6445312,12.684375 C90.3710924,12.684375 90.0716162,12.8341131 89.7460938,13.1335938 C90.2408879,13.9408895 90.4882812,14.8458283 90.4882812,15.8484375 C90.4882812,17.4239662 89.8632875,18.7650986 88.6132812,19.871875 C87.3502541,20.9916723 85.1041828,21.616666 81.875,21.746875 C80.5208266,21.7989586 79.5833359,21.9421863 79.0625,22.1765625 C78.5416641,22.4109387 78.28125,22.7755184 78.28125,23.2703125 C78.28125,23.9604201 79.1275957,24.3054688 80.8203125,24.3054688 C81.1848977,24.3054688 82.024733,24.2794273 83.3398438,24.2273437 C83.7955752,24.2143229 84.2578102,24.2078125 84.7265625,24.2078125 C87.5651184,24.2078125 89.6158791,24.6505164 90.8789062,25.5359375 C92.1419334,26.4213586 92.7734375,27.8471256 92.7734375,29.8132813 C92.7734375,31.8575623 91.89454,33.5209571 90.1367188,34.8035156 C88.3788975,36.0860741 85.7161637,36.7273438 82.1484375,36.7273438 C78.7630039,36.7273438 76.4518291,36.2976605 75.2148438,35.4382813 C73.9778584,34.578902 73.359375,33.6088596 73.359375,32.528125 C73.359375,31.8510383 73.5839821,31.2976584 74.0332031,30.8679688 C74.4824241,30.4382791 74.9999971,30.2234375 75.5859375,30.2234375 C76.0546898,30.2234375 76.6080697,30.3731756 77.2460938,30.6726563 C77.1549475,30.9070324 77.0833336,31.1316396 77.03125,31.3464844 C76.9791664,31.5613292 76.953125,31.7598949 76.953125,31.9421875 C76.953125,32.8536504 77.4088496,33.5372373 78.3203125,33.9929688 C79.2317754,34.4487002 80.5989492,34.6765625 82.421875,34.6765625 C84.6875113,34.6765625 86.3834579,34.3575553 87.5097656,33.7195313 C88.6360733,33.0815072 89.1992188,32.300265 89.1992188,31.3757813 C89.1992188,30.5033811 88.815108,29.9500012 88.046875,29.715625 C87.278642,29.4812488 85.5143367,29.3640625 82.7539062,29.3640625 C79.7330578,29.3640625 77.5683659,29.0483104 76.2597656,28.4167969 C74.9511653,27.7852833 74.296875,26.7143305 74.296875,25.2039063 C74.296875,24.1492135 74.6354133,23.2800815 75.3125,22.5964844 C75.9895867,21.9128872 76.9986912,21.4213557 78.3398438,21.121875 Z M79.921875,15.6921875 C79.921875,16.9421938 80.1204407,17.8829396 80.5175781,18.5144531 C80.9147155,19.1459667 81.5039023,19.4617188 82.2851562,19.4617188 C83.0403684,19.4617188 83.6067689,19.1362012 83.984375,18.4851563 C84.3619811,17.8341113 84.5507812,16.8575586 84.5507812,15.5554688 C84.5507812,14.4226506 84.3229189,13.6023463 83.8671875,13.0945313 C83.4114561,12.5867162 82.8645865,12.3328125 82.2265625,12.3328125 C81.4583295,12.3328125 80.8821634,12.6127576 80.4980469,13.1726563 C80.1139304,13.7325549 79.921875,14.5723902 79.921875,15.6921875 Z M95.2148437,18.778125 C95.2148437,16.0958199 96.1653551,13.9929764 98.0664062,12.4695313 C99.9674574,10.9460861 102.265612,10.184375 104.960937,10.184375 C107.591159,10.184375 109.882803,10.9232999 111.835937,12.4011719 C113.789072,13.8790438 114.765625,16.011184 114.765625,18.7976563 C114.765625,21.4408986 113.808603,23.5469974 111.894531,25.1160156 C109.980459,26.6850339 107.662774,27.4695313 104.941406,27.4695313 C102.285143,27.4695313 100.00001,26.724096 98.0859375,25.2332031 C96.1718654,23.7423103 95.2148437,21.5906391 95.2148437,18.778125 Z M101.914062,18.5828125 C101.914062,21.082825 102.14518,22.8308544 102.607422,23.8269531 C103.069664,24.8230519 103.873692,25.3210938 105.019531,25.3210938 C105.944015,25.3210938 106.68294,24.9044313 107.236328,24.0710938 C107.789716,23.2377563 108.066406,21.4604303 108.066406,18.7390625 C108.066406,16.2650918 107.819013,14.5886763 107.324219,13.7097656 C106.829425,12.830855 106.048182,12.3914063 104.980469,12.3914063 C104.13411,12.3914063 103.411461,12.7657515 102.8125,13.5144531 C102.213539,14.2631548 101.914062,15.952591 101.914062,18.5828125 Z" id="Longo" fill="#000000"></path>
            <path d="M34.6597197,47.1689941 L33.9397197,47.1689941 L33.9397197,40.0889941 L38.2097197,40.0889941 L38.2097197,40.7489941 L34.6597197,40.7489941 L34.6597197,43.1589941 L37.9597197,43.1589941 L37.9597197,43.8189941 L34.6597197,43.8189941 L34.6597197,47.1689941 Z M43.8797197,44.6489941 L46.9497197,44.6489941 L45.4197197,40.9289941 L43.8797197,44.6489941 Z M42.8297197,47.1689941 L41.9897197,47.1689941 L45.0697197,40.0889941 L45.7697197,40.0889941 L48.8497197,47.1689941 L48.0097197,47.1689941 L47.2297197,45.3089941 L43.6097197,45.3089941 L42.8297197,47.1689941 Z M57.2997197,45.8489941 L59.6897197,40.0889941 L60.7897197,40.0889941 L60.7897197,47.1689941 L60.0697197,47.1689941 L60.0697197,41.0489941 L60.0497197,41.0489941 L57.4897197,47.1689941 L57.1097197,47.1689941 L54.5497197,41.0489941 L54.5297197,41.0489941 L54.5297197,47.1689941 L53.8097197,47.1689941 L53.8097197,40.0889941 L54.9097197,40.0889941 L57.2997197,45.8489941 Z M67.4297197,47.1689941 L66.7097197,47.1689941 L66.7097197,40.0889941 L67.4297197,40.0889941 L67.4297197,47.1689941 Z M74.0697197,46.5089941 L77.3697197,46.5089941 L77.3697197,47.1689941 L73.3497197,47.1689941 L73.3497197,40.0889941 L74.0697197,40.0889941 L74.0697197,46.5089941 Z M83.6397197,47.1689941 L82.9197197,47.1689941 L82.9197197,44.1189941 L80.2697197,40.0889941 L81.1697197,40.0889941 L83.2797197,43.4289941 L85.3897197,40.0889941 L86.2897197,40.0889941 L83.6397197,44.1189941 L83.6397197,47.1689941 Z" id="FAMILY" fill="#000000"></path>
            <path d="M3,44.5789941 L29.0163074,44.5789941" id="Line" stroke="#000000" stroke-width="0.5" stroke-linecap="square"></path>
            <path d="M90,44.5789941 L113.516307,44.5789941" id="Line" stroke="#000000" stroke-width="0.5" stroke-linecap="square"></path>
        </g>
    </g>
</svg>